name c:\Users\T11648sTb\Documents\VSCODE\Pred_Sim_Sprinting\Pred_Sim_Sprinting\MainFunctions\ExperimentalData\IK_Splined\Splined_500_meshInts_p02_maxVel_01.mot
datacolumns 38
datarows 10
range 0.11211222 0.11307948
endheader
                time	/jointset/ground_pelvis/pelvis_tilt/value	/jointset/ground_pelvis/pelvis_list/value	/jointset/ground_pelvis/pelvis_rotation/value	/jointset/ground_pelvis/pelvis_tx/value	/jointset/ground_pelvis/pelvis_ty/value	/jointset/ground_pelvis/pelvis_tz/value	/jointset/hip_r/hip_flexion_r/value	/jointset/hip_r/hip_adduction_r/value	/jointset/hip_r/hip_rotation_r/value	/jointset/knee_r/knee_angle_r/value	/jointset/ankle_r/ankle_angle_r/value	/jointset/subtalar_r/subtalar_angle_r/value	/jointset/mtp_r/mtp_angle_r/value	/jointset/hip_l/hip_flexion_l/value	/jointset/hip_l/hip_adduction_l/value	/jointset/hip_l/hip_rotation_l/value	/jointset/knee_l/knee_angle_l/value	/jointset/ankle_l/ankle_angle_l/value	/jointset/subtalar_l/subtalar_angle_l/value	/jointset/mtp_l/mtp_angle_l/value	/jointset/back/lumbar_extension/value	/jointset/back/lumbar_bending/value	/jointset/back/lumbar_rotation/value	/jointset/acromial_r/arm_flex_r/value	/jointset/acromial_r/arm_add_r/value	/jointset/acromial_r/arm_rot_r/value	/jointset/elbow_r/elbow_flex_r/value	/jointset/radioulnar_r/pro_sup_r/value	/jointset/radius_hand_r/wrist_flex_r/value	/jointset/radius_hand_r/wrist_dev_r/value	/jointset/acromial_l/arm_flex_l/value	/jointset/acromial_l/arm_add_l/value	/jointset/acromial_l/arm_rot_l/value	/jointset/elbow_l/elbow_flex_l/value	/jointset/radioulnar_l/pro_sup_l/value	/jointset/radius_hand_l/wrist_flex_l/value	/jointset/radius_hand_l/wrist_dev_l/value	
          0.11211222	          4.51318425	          3.57916861	        -18.35119206	         -1.31743585	          0.96801382	          0.32043361	          0.57459212	         -6.52186728	          7.37649718	        -38.35802768	         19.44126353	        -10.27090589	          3.21357138	         59.64189871	        -13.25212033	        -19.51012340	       -136.07573720	         -4.84791578	        -12.62701884	         10.67928288	        -17.24396679	         -9.08501577	          6.68264444	         27.90861797	         -3.57646129	         21.35359768	        110.81013570	         65.00386429	        -13.39850075	         13.33040467	        -56.93845883	         -8.10301641	        -25.71975586	         45.96989724	         81.22406076	          1.48816322	         21.15471575	
          0.11218169	          4.50116097	          3.58663262	        -18.35926510	         -1.31673893	          0.96799174	          0.32045749	          0.54232768	         -6.53387564	          7.39206646	        -38.34707866	         19.40201512	        -10.30345723	          3.24934327	         59.69985194	        -13.25421656	        -19.49187123	       -136.04251180	         -4.83350877	        -12.60341105	         10.67572575	        -17.21495062	         -9.09659356	          6.70649672	         27.94418561	         -3.56917494	         21.35786320	        110.83514475	         65.00609988	        -13.40035253	         13.33513886	        -56.98670837	         -8.09712356	        -25.75279731	         45.98986837	         81.21937299	          1.49604895	         21.15826967	
          0.11240116	          4.46317775	          3.61022789	        -18.38393305	         -1.31453598	          0.96792268	          0.32053244	          0.43985709	         -6.57177540	          7.44059643	        -38.31168132	         19.27639805	        -10.40679029	          3.36247614	         59.88275206	        -13.26006027	        -19.43367699	       -135.93702208	         -4.78806907	        -12.52838099	         10.66464480	        -17.12330259	         -9.13301564	          6.78113520	         28.05635464	         -3.54654963	         21.37188518	        110.91436091	         65.01307329	        -13.40623648	         13.35009494	        -57.13924139	         -8.07847410	        -25.85742852	         46.05347140	         81.20417925	          1.52102487	         21.16949382	
          0.11256022	          4.43565582	          3.62734166	        -18.40101087	         -1.31293846	          0.96787333	          0.32058623	          0.36509083	         -6.59920498	          7.47513067	        -38.28526695	         19.18383279	        -10.48213116	          3.44456146	         60.01510793	        -13.26354998	        -19.39100981	       -135.86008472	         -4.75521687	        -12.47359806	         10.65676532	        -17.05691253	         -9.15926379	          6.83453455	         28.13745128	         -3.53052874	         21.38256826	        110.97195961	         65.01804045	        -13.41053320	         13.36093138	        -57.24986750	         -8.06492736	        -25.93347912	         46.10004082	         81.19280510	          1.53918234	         21.17762409	
          0.11256112	          4.43550050	          3.62743829	        -18.40110535	         -1.31292944	          0.96787305	          0.32058654	          0.36466763	         -6.59935971	          7.47532405	        -38.28511606	         19.18330670	        -10.48255746	          3.44502497	         60.01585450	        -13.26356788	        -19.39076783	       -135.85964932	         -4.75503164	        -12.47328790	         10.65672121	        -17.05653788	         -9.15941159	          6.83483428	         28.13790855	         -3.53043921	         21.38262981	        110.97228516	         65.01806828	        -13.41055753	         13.36099253	        -57.25049209	         -8.06485082	        -25.93390889	         46.10030479	         81.19274004	          1.53928496	         21.17766997	
          0.11263059	          4.42348359	          3.63491587	        -18.40834983	         -1.31223155	          0.96785168	          0.32060989	          0.33188403	         -6.61132852	          7.49023349	        -38.27337940	         19.14247872	        -10.51557629	          3.48089370	         60.07360065	        -13.26489233	        -19.37200642	       -135.82592233	         -4.74070725	        -12.44925955	         10.65332079	        -17.02755409	         -9.17083534	          6.85796765	         28.17327169	         -3.52354299	         21.38743443	        110.99748815	         65.02021406	        -13.41244276	         13.36572378	        -57.29882310	         -8.05892635	        -25.96717801	         46.12076652	         81.18767673	          1.54722906	         21.18121934	
          0.11285006	          4.38552381	          3.65855969	        -18.43039038	         -1.31002549	          0.96778488	          0.32068311	          0.22777380	         -6.64910825	          7.53665179	        -38.23549991	         19.01187712	        -10.62035828	          3.59430096	         60.25583962	        -13.26828058	        -19.31222570	       -135.71885093	         -4.69553969	        -12.37293741	         10.64273892	        -16.93601381	         -9.20677835	          6.93031530	         28.28480184	         -3.50215065	         21.40317095	        111.07731530	         65.02689992	        -13.41843538	         13.38066747	        -57.45160925	         -8.04017156	        -26.07252142	         46.18590822	         81.17129786	          1.57238659	         21.19242963	
          0.11300912	          4.35802204	          3.67571403	        -18.44555497	         -1.30842571	          0.96773715	          0.32073564	          0.15181988	         -6.67645554	          7.56963009	        -38.20729274	         18.91570529	        -10.69672259	          3.67655514	         60.38770977	        -13.26997462	        -19.26843006	       -135.64077026	         -4.66289528	        -12.31725285	         10.63522487	        -16.86970701	         -9.23268654	          6.98203603	         28.36544230	         -3.48702361	         21.41510727	        111.13535516	         65.03165508	        -13.42281370	         13.39149199	        -57.56241471	         -8.02654334	        -26.14908141	         46.23358191	         81.15906617	          1.59067299	         21.20055031	
          0.11301002	          4.35786684	          3.67581090	        -18.44563863	         -1.30841668	          0.96773688	          0.32073593	          0.15138998	         -6.67660982	          7.56981463	        -38.20713173	         18.91515885	        -10.69715460	          3.67701954	         60.38845358	        -13.26998235	        -19.26818176	       -135.64032840	         -4.66271125	        -12.31693770	         10.63518283	        -16.86933285	         -9.23283244	          6.98232625	         28.36589701	         -3.48693913	         21.41517592	        111.13568320	         65.03168170	        -13.42283850	         13.39155307	        -57.56304030	         -8.02646633	        -26.14951404	         46.23385209	         81.15899627	          1.59077633	         21.20059614	
          0.11307948	          4.34585957	          3.68330763	        -18.45204520	         -1.30771780	          0.96771622	          0.32075872	          0.11808790	         -6.68854394	          7.58403782	        -38.19461378	         18.87275747	        -10.73061327	          3.71295404	         60.44598589	        -13.27051835	        -19.24893322	       -135.60610291	         -4.64848041	        -12.29252487	         10.63194299	        -16.84038680	         -9.24410966	          7.00472169	         28.40106276	         -3.48043332	         21.42053064	        111.16107840	         65.03373395	        -13.42476012	         13.39627833	        -57.61144855	         -8.02050491	        -26.18300380	         46.25479317	         81.15355884	          1.59877602	         21.20414145	
